<?xml version="1.0" encoding="utf-8"?>
<!-- Generator: Adobe Illustrator 17.0.0, SVG Export Plug-In . SVG Version: 6.00 Build 0)  -->
<!DOCTYPE svg PUBLIC "-//W3C//DTD SVG 1.1//EN" "http://www.w3.org/Graphics/SVG/1.1/DTD/svg11.dtd">
<svg version="1.1" id="Layer_1" xmlns="http://www.w3.org/2000/svg" xmlns:xlink="http://www.w3.org/1999/xlink" x="0px" y="0px"
	 width="523px" height="514px" viewBox="0 0 523 514" enable-background="new 0 0 523 514" xml:space="preserve">
<path fill="#61BB47" d="M115.833,82.5"/>
<polygon fill="#61BB47" stroke="#000000" stroke-width="4" stroke-miterlimit="10" points="94.25,94.167 434.583,417.917 
	445.083,410.25 411.75,378.417 471.167,378.333 484.417,354.25 386.583,354.583 296,267.667 383.167,266.75 439.667,321 451.5,298 
	421.667,267.583 511.667,266.75 511.667,241.667 420.5,243.083 449.417,216.083 440.333,189.25 382.75,244.25 294,243.5 
	386.5,155.5 487.25,157.083 472,132.833 411.833,133.25 442.167,102.25 427.5,85.333 393.833,117.5 393.333,58.5 369.333,46.083 
	370.75,140 276.583,228.917 275.833,151.417 338.667,95.417 317.75,81.333 277,120.25 276.833,22.25 252.917,22.25 252.833,118.667 
	212.167,82.583 193,92.917 250.75,151 252.417,227.667 162.25,139.917 160.917,45.25 136.917,60.167 137.333,115.917 104.917,86.25 
	"/>
<polygon fill="#603913" stroke="#000000" stroke-width="4" stroke-miterlimit="10" points="431.958,419.833 91.625,96.083 
	81.125,103.75 114.458,135.583 55.042,135.667 41.792,159.75 139.625,159.417 230.208,246.333 143.042,247.25 86.542,193 
	74.708,216 104.542,246.417 14.542,247.25 14.542,272.333 105.708,270.917 76.792,297.917 85.875,324.75 143.458,269.75 
	232.208,270.5 139.708,358.5 38.958,356.917 54.208,381.167 114.375,380.75 84.042,411.75 98.708,428.667 132.375,396.5 
	132.875,455.5 156.875,467.917 155.458,374 249.625,285.083 250.375,362.583 187.542,418.583 208.458,432.667 249.208,393.75 
	249.375,491.75 273.292,491.75 273.375,395.333 314.042,431.417 333.208,421.083 275.458,363 273.792,286.333 363.958,374.083 
	365.292,468.75 389.292,453.833 388.875,398.083 421.292,427.75 "/>
</svg>
